<svg xmlns="http://www.w3.org/2000/svg" width="1200" height="800" viewBox="0 0 1200 800">
  <!-- Archon Frontend Forge — committed placeholder SVG -->
  <!-- assetType: background texture -->
  <!-- Generated by src/forge/placeholder-assets.ts — DO NOT hand-edit -->

  <!-- Base surface -->
  <rect width="1200" height="800" fill="#0A0A0A"/>

  <!-- Per-type decorative motif -->
  <line x1="0" y1="0" x2="0" y2="800" stroke="#6366F1" stroke-width="0.5" opacity="0.07"/>
  <line x1="80" y1="0" x2="80" y2="800" stroke="#6366F1" stroke-width="0.5" opacity="0.07"/>
  <line x1="160" y1="0" x2="160" y2="800" stroke="#6366F1" stroke-width="0.5" opacity="0.07"/>
  <line x1="240" y1="0" x2="240" y2="800" stroke="#6366F1" stroke-width="0.5" opacity="0.07"/>
  <line x1="320" y1="0" x2="320" y2="800" stroke="#6366F1" stroke-width="0.5" opacity="0.07"/>
  <line x1="400" y1="0" x2="400" y2="800" stroke="#6366F1" stroke-width="0.5" opacity="0.07"/>
  <line x1="480" y1="0" x2="480" y2="800" stroke="#6366F1" stroke-width="0.5" opacity="0.07"/>
  <line x1="560" y1="0" x2="560" y2="800" stroke="#6366F1" stroke-width="0.5" opacity="0.07"/>
  <line x1="640" y1="0" x2="640" y2="800" stroke="#6366F1" stroke-width="0.5" opacity="0.07"/>
  <line x1="720" y1="0" x2="720" y2="800" stroke="#6366F1" stroke-width="0.5" opacity="0.07"/>
  <line x1="800" y1="0" x2="800" y2="800" stroke="#6366F1" stroke-width="0.5" opacity="0.07"/>
  <line x1="880" y1="0" x2="880" y2="800" stroke="#6366F1" stroke-width="0.5" opacity="0.07"/>
  <line x1="960" y1="0" x2="960" y2="800" stroke="#6366F1" stroke-width="0.5" opacity="0.07"/>
  <line x1="1040" y1="0" x2="1040" y2="800" stroke="#6366F1" stroke-width="0.5" opacity="0.07"/>
  <line x1="1120" y1="0" x2="1120" y2="800" stroke="#6366F1" stroke-width="0.5" opacity="0.07"/>
  <line x1="1200" y1="0" x2="1200" y2="800" stroke="#6366F1" stroke-width="0.5" opacity="0.07"/>
  <line x1="1280" y1="0" x2="1280" y2="800" stroke="#6366F1" stroke-width="0.5" opacity="0.07"/>
  <line x1="0" y1="0" x2="1200" y2="0" stroke="#6366F1" stroke-width="0.5" opacity="0.07"/>
  <line x1="0" y1="80" x2="1200" y2="80" stroke="#6366F1" stroke-width="0.5" opacity="0.07"/>
  <line x1="0" y1="160" x2="1200" y2="160" stroke="#6366F1" stroke-width="0.5" opacity="0.07"/>
  <line x1="0" y1="240" x2="1200" y2="240" stroke="#6366F1" stroke-width="0.5" opacity="0.07"/>
  <line x1="0" y1="320" x2="1200" y2="320" stroke="#6366F1" stroke-width="0.5" opacity="0.07"/>
  <line x1="0" y1="400" x2="1200" y2="400" stroke="#6366F1" stroke-width="0.5" opacity="0.07"/>
  <line x1="0" y1="480" x2="1200" y2="480" stroke="#6366F1" stroke-width="0.5" opacity="0.07"/>
  <line x1="0" y1="560" x2="1200" y2="560" stroke="#6366F1" stroke-width="0.5" opacity="0.07"/>
  <line x1="0" y1="640" x2="1200" y2="640" stroke="#6366F1" stroke-width="0.5" opacity="0.07"/>
  <line x1="0" y1="720" x2="1200" y2="720" stroke="#6366F1" stroke-width="0.5" opacity="0.07"/>
  <line x1="0" y1="800" x2="1200" y2="800" stroke="#6366F1" stroke-width="0.5" opacity="0.07"/>
  <line x1="0" y1="880" x2="1200" y2="880" stroke="#6366F1" stroke-width="0.5" opacity="0.07"/>
  <circle cx="80" cy="80" r="1.5" fill="#6366F1" opacity="0.2"/>
  <circle cx="80" cy="320" r="1.5" fill="#6366F1" opacity="0.2"/>
  <circle cx="80" cy="560" r="1.5" fill="#6366F1" opacity="0.2"/>
  <circle cx="80" cy="800" r="1.5" fill="#6366F1" opacity="0.2"/>
  <circle cx="320" cy="80" r="1.5" fill="#6366F1" opacity="0.2"/>
  <circle cx="320" cy="320" r="1.5" fill="#6366F1" opacity="0.2"/>
  <circle cx="320" cy="560" r="1.5" fill="#6366F1" opacity="0.2"/>
  <circle cx="320" cy="800" r="1.5" fill="#6366F1" opacity="0.2"/>
  <circle cx="560" cy="80" r="1.5" fill="#6366F1" opacity="0.2"/>
  <circle cx="560" cy="320" r="1.5" fill="#6366F1" opacity="0.2"/>
  <circle cx="560" cy="560" r="1.5" fill="#6366F1" opacity="0.2"/>
  <circle cx="560" cy="800" r="1.5" fill="#6366F1" opacity="0.2"/>
  <circle cx="800" cy="80" r="1.5" fill="#6366F1" opacity="0.2"/>
  <circle cx="800" cy="320" r="1.5" fill="#6366F1" opacity="0.2"/>
  <circle cx="800" cy="560" r="1.5" fill="#6366F1" opacity="0.2"/>
  <circle cx="800" cy="800" r="1.5" fill="#6366F1" opacity="0.2"/>
  <circle cx="1040" cy="80" r="1.5" fill="#6366F1" opacity="0.2"/>
  <circle cx="1040" cy="320" r="1.5" fill="#6366F1" opacity="0.2"/>
  <circle cx="1040" cy="560" r="1.5" fill="#6366F1" opacity="0.2"/>
  <circle cx="1040" cy="800" r="1.5" fill="#6366F1" opacity="0.2"/>

  <!-- Divider -->
  <line x1="180" y1="624" x2="1020" y2="624" stroke="#A0A0A0" stroke-width="0.5" opacity="0.4"/>

  <!-- Asset type label -->
  <text
    x="600"
    y="688"
    fill="#EDEDED"
    font-family="Geist Sans, sans-serif"
    font-size="13"
    font-weight="500"
    letter-spacing="-0.01em"
    text-anchor="middle"
    opacity="0.85"
  >background texture</text>

  <!-- PLACEHOLDER marker -->
  <text
    x="16"
    y="20"
    fill="#818CF8"
    font-family="Geist Mono, monospace"
    font-size="10"
    font-weight="500"
    letter-spacing="0.05em"
    opacity="0.45"
  >PLACEHOLDER</text>
</svg>